<?xml version="1.0" encoding="UTF-8" standalone="no"?><!DOCTYPE svg PUBLIC "-//W3C//DTD SVG 1.1//EN" "http://www.w3.org/Graphics/SVG/1.1/DTD/svg11.dtd"><svg width="100%" height="100%" viewBox="0 0 200 200" version="1.1" xmlns="http://www.w3.org/2000/svg" xmlns:xlink="http://www.w3.org/1999/xlink" xml:space="preserve" xmlns:serif="http://www.serif.com/" style="fill-rule:evenodd;clip-rule:evenodd;stroke-linejoin:round;stroke-miterlimit:2;"><path d="M199,50.5l0,99c0,27.32 -22.18,49.5 -49.5,49.5l-99,0c-27.32,0 -49.5,-22.18 -49.5,-49.5l0,-99c0,-27.32 22.18,-49.5 49.5,-49.5l99,0c27.32,0 49.5,22.18 49.5,49.5Zm-11,-0c0,-21.249 -17.251,-38.5 -38.5,-38.5l-99,0c-21.249,0 -38.5,17.251 -38.5,38.5l0,99c0,21.249 17.251,38.5 38.5,38.5l99,0c21.249,0 38.5,-17.251 38.5,-38.5l0,-99Z"/><g transform="matrix(124.006078,0,0,124.006078,141.809666,146.265591)"></g><text x="59.099px" y="146.266px" style="font-family:'ArialMT', 'Arial', sans-serif;font-size:124.006px;">S</text></svg>